<svg width="261" height="125" viewBox="0 0 261 125" fill="none" xmlns="http://www.w3.org/2000/svg">
<path fill-rule="evenodd" clip-rule="evenodd" d="M0.878679 12.0303C0.31607 12.5929 0 13.356 0 14.1516V22C0 23.6569 1.34315 25 3 25H11H12.5H33C34.6569 25 36 26.3432 36 28V50V75V100V122C36 123.657 37.3431 125 39 125H58C59.6569 125 61 123.657 61 122V100V75V50V28C61 26.3432 62.3431 25 64 25H83C84.6569 25 86 26.3432 86 28V50V75V100V122C86 123.657 87.3431 125 89 125H111H136H158C159.657 125 161 123.657 161 122V100V75V50V28C161 26.3432 162.343 25 164 25H183C184.657 25 186 26.3432 186 28V50V75V100V122C186 123.657 187.343 125 189 125H208C209.657 125 211 123.657 211 122V100V75V50V28C211 26.3432 212.343 25 214 25H233C234.657 25 236 26.3432 236 28V50V75V100V122C236 123.657 237.343 125 239 125H258C259.657 125 261 123.657 261 122V100V75V50V25V3.00001C261 1.34315 259.657 7.62939e-06 258 7.62939e-06H236H211H186H161H139C137.343 7.62939e-06 136 1.34315 136 3.00001V25V50V75V97C136 98.6569 134.657 100 133 100H114C112.343 100 111 98.6569 111 97V75V50V25V3.00001C111 1.34315 109.657 7.62939e-06 108 7.62939e-06H86H61H36H14.1516C13.356 7.62939e-06 12.5929 0.316078 12.0303 0.878687L0.878679 12.0303Z" fill="url(#paint0_linear_4_122)" fill-opacity="0.9"/>
<path fill-rule="evenodd" clip-rule="evenodd" d="M0 13H12.9964V7.62939e-06L0 13Z" fill="#010183"/>
<defs>
<linearGradient id="paint0_linear_4_122" x1="0" y1="7.62939e-06" x2="261" y2="125" gradientUnits="userSpaceOnUse">
<stop stop-color="#0000FF"/>
<stop offset="0.0001" stop-color="#0000D0"/>
<stop offset="1" stop-color="#010183"/>
</linearGradient>
</defs>
</svg>
